# xmcd CD database file
#
# Track frame offsets:
#	150
#	12405
#	27292
#	42570
#	56387
#	69082
#	83205
#	97855
#	110332
#	125507
#	140110
#	153782
#	166812
#	181952
#	196185
#	209845
#	224135
#	236782
#	251327
#	265370
#	278035
#	292180
#	307530
#	320865
#
# Disc length: 4473 seconds
#
# Revision: 6
# Processed by: cddbd v1.5.2PL0 Copyright (c) Steve Scherf et al.
# Submitted via: CDex 1.51
#
DISCID=62117718
DTITLE=Duke Ellington - The OKeh Ellington CD2
DYEAR=1991
DGENRE=Jazz
TTITLE0=That Rhythm Man
TTITLE1=Beggar's Blues
TTITLE2=Saturday Night Function
TTITLE3=Jungle Jamboree
TTITLE4=Snake Hip Dance
TTITLE5=Lazy Duke
TTITLE6=Blues Of The Vagabond
TTITLE7=Syncopated Shuffle
TTITLE8=The Mooche
TTITLE9=East St Louis Toodle-Oo
TTITLE10=Sweet Mama
TTITLE11=Hot And Bothered
TTITLE12=Double Check Stomp
TTITLE13=Black And Tan Fantasy
TTITLE14=Big House Blues
TTITLE15=Rocky Mountain Blues
TTITLE16=Ring Dem Bells
TTITLE17=Three Little Words
TTITLE18=Old Man Blues
TTITLE19=Sweet Chariot
TTITLE20=Mood Indigo
TTITLE21=I Can't Realize You Love Me
TTITLE22=I'm So In Love With You
TTITLE23=Rockin' In Rhythm
EXTD=YEAR: 1991
EXTT0=
EXTT1=
EXTT2=
EXTT3=
EXTT4=
EXTT5=
EXTT6=
EXTT7=
EXTT8=
EXTT9=
EXTT10=
EXTT11=
EXTT12=
EXTT13=
EXTT14=
EXTT15=
EXTT16=
EXTT17=
EXTT18=
EXTT19=
EXTT20=
EXTT21=
EXTT22=
EXTT23=
PLAYORDER=
